PathFileType	4	(X/Y/Z)	c:/Users/goper/Files/vsCode/490R/osim_files/A01/A01_Fast_01.trc
DataRate	CameraRate	NumFrames	NumMarkers	Units                	OrigDataRate	OrigDataStartFrame	OrigNumFrames
120.00	120.00	5	36	mm	120.0	1209	1381
                Frame#	Time	LPSIS			LASIS			LTH1			LTH2			LTH3			LTH4			LLFE			LMFE			LSH1			LSH2			LSH3			LSH4			LLMAL			LMMAL			LCAL			LMTP5			LTOE			LMTP1			RPSIS			RASIS			RTH1			RTH2			RTH3			RTH4			RLFE			RMFE			RSH1			RSH2			RSH3			RSH4			RLMAL			RMMAL			RCAL			RMTP1			RTOE			RMTP5		
		X1	Y1	Z1	X2	Y2	Z2	X3	Y3	Z3	X4	Y4	Z4	X5	Y5	Z5	X6	Y6	Z6	X7	Y7	Z7	X8	Y8	Z8	X9	Y9	Z9	X10	Y10	Z10	X11	Y11	Z11	X12	Y12	Z12	X13	Y13	Z13	X14	Y14	Z14	X15	Y15	Z15	X16	Y16	Z16	X17	Y17	Z17	X18	Y18	Z18	X19	Y19	Z19	X20	Y20	Z20	X21	Y21	Z21	X22	Y22	Z22	X23	Y23	Z23	X24	Y24	Z24	X25	Y25	Z25	X26	Y26	Z26	X27	Y27	Z27	X28	Y28	Z28	X29	Y29	Z29	X30	Y30	Z30	X31	Y31	Z31	X32	Y32	Z32	X33	Y33	Z33	X34	Y34	Z34	X35	Y35	Z35	X36	Y36	Z36

1209	10.06667	0.00000	0.00000	0.00000	-4269.50830	85.31908	728.65186	-1236.59924	1337.72607	3038.80933	0.00000	0.00000	0.00000	0.00000	0.00000	0.00000	0.00000	0.00000	0.00000	0.00000	0.00000	0.00000	0.00000	0.00000	0.00000	-4202.15430	1066.83240	821.58807	0.00000	0.00000	0.00000	0.00000	0.00000	0.00000	0.00000	0.00000	0.00000	-4253.11572	233.95645	635.83868	-4328.22998	229.22765	678.65668	-4335.46240	268.59943	601.66461	-4193.20264	102.19939	662.05627	-4230.11914	87.83054	727.62878	0.00000	0.00000	0.00000	-4296.66309	1071.85596	864.40906	0.00000	0.00000	0.00000	-4408.88086	692.36389	1034.94641	-4403.46045	650.85608	1048.31628	-4394.27148	705.68036	1094.69946	-4392.33691	662.71155	1098.25073	-4353.41455	516.15778	1105.28821	0.00000	0.00000	0.00000	-4407.64844	316.87247	1038.28809	-4409.59082	272.20767	1043.64905	-4389.27832	317.75977	1096.21252	-4392.94238	272.36484	1094.59546	-4383.64258	92.55649	1066.65979	0.00000	0.00000	0.00000	-4360.51172	65.38010	1000.22577	0.00000	0.00000	0.00000	0.00000	0.00000	0.00000	-4354.49756	31.79634	1201.04846
1210	10.07500	0.00000	0.00000	0.00000	-4266.65967	85.41642	745.05054	-1237.09863	1337.92407	3038.83594	0.00000	0.00000	0.00000	0.00000	0.00000	0.00000	0.00000	0.00000	0.00000	0.00000	0.00000	0.00000	0.00000	0.00000	0.00000	-4203.42480	1067.81445	827.25085	0.00000	0.00000	0.00000	0.00000	0.00000	0.00000	0.00000	0.00000	0.00000	-4254.89648	234.38406	652.04962	-4328.31104	229.87610	696.55701	-4337.52295	268.71518	619.51581	-4193.17285	103.31247	677.72803	-4228.75732	89.39079	744.14441	0.00000	0.00000	0.00000	-4297.59717	1072.33667	871.02942	0.00000	0.00000	0.00000	-4407.66797	692.45953	1040.38342	-4401.82080	650.89240	1053.34985	-4392.30566	705.51770	1099.89551	-4390.41260	662.37518	1103.03296	-4351.96191	515.86487	1107.63098	0.00000	0.00000	0.00000	-4406.87061	316.97528	1039.82593	-4408.75781	272.28006	1044.96545	-4388.12256	317.58090	1097.63025	-4391.79785	272.20340	1095.84778	-4382.77637	92.78094	1066.70959	0.00000	0.00000	0.00000	-4360.12939	65.52174	1000.18341	0.00000	0.00000	0.00000	-4269.04297	62.08935	1220.33997	-4354.27344	32.00117	1201.07446
1211	10.08333	0.00000	0.00000	0.00000	-4266.22754	86.22991	763.84698	-1237.59167	1338.06335	3038.89209	0.00000	0.00000	0.00000	0.00000	0.00000	0.00000	0.00000	0.00000	0.00000	0.00000	0.00000	0.00000	0.00000	0.00000	0.00000	-4204.58252	1068.86169	832.92517	0.00000	0.00000	0.00000	0.00000	0.00000	0.00000	0.00000	0.00000	0.00000	-4254.64697	233.87515	668.79425	-4327.65967	230.36299	714.08270	-4337.53809	268.22217	636.62659	-4193.26904	102.83899	695.55341	-4228.28662	89.95754	762.56091	0.00000	0.00000	0.00000	-4298.39551	1072.91858	877.66193	0.00000	0.00000	0.00000	-4406.33350	692.65417	1045.66504	-4400.24414	651.00201	1058.22742	-4390.42822	705.07751	1105.04089	-4388.05615	662.18689	1107.83203	-4350.52490	515.31708	1109.79382	0.00000	0.00000	0.00000	-4406.04443	317.10159	1041.37878	-4407.89453	272.33975	1046.32764	-4386.88232	317.40671	1099.03809	-4390.66113	272.06903	1097.04858	-4381.91260	93.04334	1066.68811	0.00000	0.00000	0.00000	-4359.71436	65.66129	1000.14850	0.00000	0.00000	0.00000	-4269.28857	61.73052	1221.19739	-4354.09570	32.32623	1201.09277
1212	10.09167	0.00000	0.00000	0.00000	-4267.49707	87.80245	784.81073	-1238.11536	1338.19421	3038.95874	0.00000	0.00000	0.00000	0.00000	0.00000	0.00000	0.00000	0.00000	0.00000	0.00000	0.00000	0.00000	0.00000	0.00000	0.00000	-4205.79883	1070.04468	838.57806	0.00000	0.00000	0.00000	0.00000	0.00000	0.00000	0.00000	0.00000	0.00000	-4252.26611	233.03087	685.76654	-4326.26953	230.50856	731.35980	-4335.90479	266.97821	653.20349	-4193.25049	101.15366	715.13306	-4228.41553	89.99477	782.42255	0.00000	0.00000	0.00000	-4299.15576	1073.60925	884.37537	0.00000	0.00000	0.00000	-4404.96289	692.93921	1050.77393	-4398.77051	651.19385	1062.89734	-4388.19580	704.94586	1109.99829	-4385.82617	661.97473	1112.40759	-4349.11621	514.61786	1111.89893	0.00000	0.00000	0.00000	-4405.18799	317.19763	1043.04395	-4407.02637	272.41025	1047.76013	-4385.68115	317.24072	1100.57043	-4389.46631	271.95581	1098.38770	-4381.11670	93.33134	1066.68323	0.00000	0.00000	0.00000	-4359.36133	65.80496	1000.12384	0.00000	0.00000	0.00000	-4268.91357	61.39240	1221.28943	-4354.01172	32.68592	1201.04346
1213	10.10000	0.00000	0.00000	0.00000	-4267.57764	88.02714	805.71625	-1238.62488	1338.33228	3038.85693	0.00000	0.00000	0.00000	0.00000	0.00000	0.00000	0.00000	0.00000	0.00000	0.00000	0.00000	0.00000	0.00000	0.00000	0.00000	-4206.92871	1071.23743	844.24139	0.00000	0.00000	0.00000	0.00000	0.00000	0.00000	0.00000	0.00000	0.00000	-4249.96582	230.52393	703.25885	-4324.16406	230.20442	748.54462	-4332.34619	264.16101	668.68463	-4192.79492	98.61141	736.25208	-4228.60352	89.76261	803.47375	0.00000	0.00000	0.00000	-4299.71240	1074.33655	891.17535	0.00000	0.00000	0.00000	-4403.78613	693.23138	1055.68042	-4397.33496	651.39539	1067.44153	-4385.88721	704.77576	1114.78210	-4383.85449	661.79517	1116.85242	-4347.83887	514.02924	1114.19177	0.00000	0.00000	0.00000	-4404.35645	317.35596	1044.86316	-4406.23291	272.60434	1049.32556	-4384.44287	317.10989	1102.24182	-4388.25000	271.74020	1099.82556	-4380.33301	93.54326	1066.75208	0.00000	0.00000	0.00000	-4359.02539	65.93741	1000.12146	0.00000	0.00000	0.00000	-4267.81006	60.96897	1220.56384	-4353.82861	32.87257	1201.13000
